<?xml version="1.0" encoding="UTF-8" standalone="no"?>
<!DOCTYPE svg PUBLIC "-//W3C//DTD SVG 1.1//EN"
 "http://www.w3.org/Graphics/SVG/1.1/DTD/svg11.dtd">
<!-- Generated by graphviz version 14.1.2 (20260124.0452)
 -->
<!-- Title: packages_extract_photos Pages: 1 -->
<svg width="660pt" height="260pt"
 viewBox="0.00 0.00 660.00 260.00" xmlns="http://www.w3.org/2000/svg" xmlns:xlink="http://www.w3.org/1999/xlink">
<g id="graph0" class="graph" transform="scale(1 1) rotate(0) translate(4 256)">
<title>packages_extract_photos</title>
<polygon fill="white" stroke="none" points="-4,4 -4,-256 655.88,-256 655.88,4 -4,4"/>
<!-- extract_photos -->
<g id="node1" class="node">
<title>extract_photos</title>
<polygon fill="none" stroke="black" points="346.62,-36 251.12,-36 251.12,0 346.62,0 346.62,-36"/>
<text xml:space="preserve" text-anchor="start" x="259.12" y="-12.95" font-family="Times,serif" font-size="14.00">extract_photos</text>
</g>
<!-- extract_photos.batch_processor -->
<g id="node2" class="node">
<title>extract_photos.batch_processor</title>
<polygon fill="none" stroke="black" points="521.38,-108 334.38,-108 334.38,-72 521.38,-72 521.38,-108"/>
<text xml:space="preserve" text-anchor="start" x="342.38" y="-84.95" font-family="Times,serif" font-size="14.00">extract_photos.batch_processor</text>
</g>
<!-- extract_photos.extract -->
<g id="node5" class="node">
<title>extract_photos.extract</title>
<polygon fill="none" stroke="black" points="320.88,-180 184.88,-180 184.88,-144 320.88,-144 320.88,-180"/>
<text xml:space="preserve" text-anchor="start" x="192.88" y="-156.95" font-family="Times,serif" font-size="14.00">extract_photos.extract</text>
</g>
<!-- extract_photos.batch_processor&#45;&gt;extract_photos.extract -->
<g id="edge1" class="edge">
<title>extract_photos.batch_processor&#45;&gt;extract_photos.extract</title>
<path fill="none" stroke="black" d="M384.17,-108.48C360.69,-117.87 331.55,-129.53 306.69,-139.47"/>
<polygon fill="black" stroke="black" points="297.46,-143.17 305.07,-135.27 300.97,-141.76 306.75,-139.45 306.75,-139.45 306.75,-139.45 300.97,-141.76 308.42,-143.63 297.46,-143.17"/>
</g>
<!-- extract_photos.utils -->
<g id="node9" class="node">
<title>extract_photos.utils</title>
<polygon fill="none" stroke="black" points="489.12,-252 366.62,-252 366.62,-216 489.12,-216 489.12,-252"/>
<text xml:space="preserve" text-anchor="start" x="374.62" y="-228.95" font-family="Times,serif" font-size="14.00">extract_photos.utils</text>
</g>
<!-- extract_photos.batch_processor&#45;&gt;extract_photos.utils -->
<g id="edge2" class="edge">
<title>extract_photos.batch_processor&#45;&gt;extract_photos.utils</title>
<path fill="none" stroke="black" d="M427.88,-108.41C427.88,-132.5 427.88,-176.25 427.88,-204.97"/>
<polygon fill="black" stroke="black" points="427.88,-214.67 423.38,-204.67 427.88,-210.89 427.88,-204.67 427.88,-204.67 427.88,-204.67 427.88,-210.89 432.38,-204.67 427.88,-214.67"/>
</g>
<!-- extract_photos.borders -->
<g id="node3" class="node">
<title>extract_photos.borders</title>
<polygon fill="none" stroke="black" points="139.75,-252 0,-252 0,-216 139.75,-216 139.75,-252"/>
<text xml:space="preserve" text-anchor="start" x="8" y="-228.95" font-family="Times,serif" font-size="14.00">extract_photos.borders</text>
</g>
<!-- extract_photos.display_progress -->
<g id="node4" class="node">
<title>extract_photos.display_progress</title>
<polygon fill="none" stroke="black" points="348.25,-252 157.5,-252 157.5,-216 348.25,-216 348.25,-252"/>
<text xml:space="preserve" text-anchor="start" x="165.5" y="-228.95" font-family="Times,serif" font-size="14.00">extract_photos.display_progress</text>
</g>
<!-- extract_photos.extract&#45;&gt;extract_photos.borders -->
<g id="edge3" class="edge">
<title>extract_photos.extract&#45;&gt;extract_photos.borders</title>
<path fill="none" stroke="black" d="M207.17,-180.48C182.4,-189.96 151.6,-201.74 125.46,-211.74"/>
<polygon fill="black" stroke="black" points="116.45,-215.18 124.19,-207.41 119.99,-213.83 125.79,-211.61 125.79,-211.61 125.79,-211.61 119.99,-213.83 127.4,-215.81 116.45,-215.18"/>
</g>
<!-- extract_photos.extract&#45;&gt;extract_photos.display_progress -->
<g id="edge4" class="edge">
<title>extract_photos.extract&#45;&gt;extract_photos.display_progress</title>
<path fill="none" stroke="black" d="M252.88,-180.3C252.88,-187.68 252.88,-196.48 252.88,-204.75"/>
<polygon fill="black" stroke="black" points="252.88,-214.68 248.38,-204.68 252.88,-210.9 252.88,-204.68 252.88,-204.68 252.88,-204.68 252.88,-210.9 257.38,-204.68 252.88,-214.68"/>
</g>
<!-- extract_photos.extract&#45;&gt;extract_photos.utils -->
<g id="edge5" class="edge">
<title>extract_photos.extract&#45;&gt;extract_photos.utils</title>
<path fill="none" stroke="black" d="M296.58,-180.48C320.06,-189.87 349.2,-201.53 374.06,-211.47"/>
<polygon fill="black" stroke="black" points="383.29,-215.17 372.33,-215.63 379.78,-213.76 374,-211.45 374,-211.45 374,-211.45 379.78,-213.76 375.68,-207.27 383.29,-215.17"/>
</g>
<!-- extract_photos.immich -->
<g id="node6" class="node">
<title>extract_photos.immich</title>
<polygon fill="none" stroke="black" points="651.88,-36 509.88,-36 509.88,0 651.88,0 651.88,-36"/>
<text xml:space="preserve" text-anchor="start" x="517.88" y="-12.95" font-family="Times,serif" font-size="14.00">extract_photos.immich</text>
</g>
<!-- extract_photos.main -->
<g id="node7" class="node">
<title>extract_photos.main</title>
<polygon fill="none" stroke="black" points="491.38,-36 364.38,-36 364.38,0 491.38,0 491.38,-36"/>
<text xml:space="preserve" text-anchor="start" x="372.38" y="-12.95" font-family="Times,serif" font-size="14.00">extract_photos.main</text>
</g>
<!-- extract_photos.main&#45;&gt;extract_photos.batch_processor -->
<g id="edge6" class="edge">
<title>extract_photos.main&#45;&gt;extract_photos.batch_processor</title>
<path fill="none" stroke="black" d="M427.88,-36.3C427.88,-43.68 427.88,-52.48 427.88,-60.75"/>
<polygon fill="black" stroke="black" points="427.88,-70.68 423.38,-60.68 427.88,-66.9 427.88,-60.68 427.88,-60.68 427.88,-60.68 427.88,-66.9 432.38,-60.68 427.88,-70.68"/>
</g>
<!-- extract_photos.transcode_playback -->
<g id="node8" class="node">
<title>extract_photos.transcode_playback</title>
<polygon fill="none" stroke="black" points="316.12,-108 109.62,-108 109.62,-72 316.12,-72 316.12,-108"/>
<text xml:space="preserve" text-anchor="start" x="117.62" y="-84.95" font-family="Times,serif" font-size="14.00">extract_photos.transcode_playback</text>
</g>
<!-- extract_photos.transcode_playback&#45;&gt;extract_photos.extract -->
<g id="edge7" class="edge">
<title>extract_photos.transcode_playback&#45;&gt;extract_photos.extract</title>
<path fill="none" stroke="black" d="M222.76,-108.3C227.22,-116.1 232.58,-125.49 237.54,-134.17"/>
<polygon fill="black" stroke="black" points="242.5,-142.84 233.63,-136.39 240.62,-139.55 237.54,-134.16 237.54,-134.16 237.54,-134.16 240.62,-139.55 241.44,-131.92 242.5,-142.84"/>
</g>
</g>
</svg>
